# xmcd
#
# Track frame offsets:
#	150
#	13018
#	32731
#	51854
#	65770
#	80846
#	104780
#	121234
#	144007
#	157633
#	169505
#	196635
#	210255
#	229432
#	246714
#	262803
#	274987
#	288819
#
# Disc length: 4030
#
# Revision: 2
# Processed by: cddbd v1.5.1PL0 Copyright (c) Steve Scherf et al.
# Submitted via: OrangeCD 5.2
# Normalized: r1:DSETVAR1
#
DISCID=fa0fbc12
DTITLE=Various Artist - Best Of Toe The Line
DYEAR=2002
DGENRE=Country
TTITLE0=Jimmy Buffett - Pencil Thin Mustache
TTITLE1=Mavericks - Dance The Night Away
TTITLE2=Roger Bryant Brown - Swing City (Extended Dance Version)
TTITLE3=Vince Gill - What The Cowgirls Do
TTITLE4=Jimmy Buffett - The Pascagoula Run
TTITLE5=Big House - Walkin' On Me (He Man Mix)
TTITLE6=Jimmy Buffett - Volcano
TTITLE7=The Mavericks - Children
TTITLE8=George Jones - Billy B. Bad
TTITLE9=Marty Stuart - Hillbilly Rock
TTITLE10=The Mavericks - La Mucara (Edit)
TTITLE11=Gary Allan - Red Lips, Blue Eyes, Little White Lies
TTITLE12=Tracy Byrd - Watermelon Crawl (Dance Mix)
TTITLE13=Dolly Parton - The Salt In My Tears
TTITLE14=Bug House - Cold Outside
TTITLE15=Danni Leigh - If The Jukebox Took Teardrops
TTITLE16=The Mavericks - She Does
TTITLE17=The Mavericks - Something Stupid
EXTD=
EXTT0=
EXTT1=
EXTT2=
EXTT3=
EXTT4=
EXTT5=
EXTT6=
EXTT7=
EXTT8=
EXTT9=
EXTT10=
EXTT11=
EXTT12=
EXTT13=
EXTT14=
EXTT15=
EXTT16=
EXTT17=
PLAYORDER=
